<?xml version="1.0" encoding="iso-8859-1"?>
<!-- Generator: Adobe Illustrator 19.0.0, SVG Export Plug-In . SVG Version: 6.00 Build 0)  -->
<svg version="1.1" id="Capa_1" xmlns="http://www.w3.org/2000/svg" xmlns:xlink="http://www.w3.org/1999/xlink" x="0px" y="0px"
	 viewBox="0 0 511.99 511.99" style="enable-background:new 0 0 511.99 511.99;" xml:space="preserve">
<path style="fill:#FFB69E;" d="M235.871,132.818l-104.383-20.064c-9.864-1.897-16.323-11.43-14.427-21.294
	c1.897-9.864,11.433-16.319,21.294-14.427l55.754,10.718l-27.54-34.272c-6.292-7.83-5.046-19.278,2.784-25.569
	c7.831-6.292,19.278-5.046,25.569,2.784l58.558,72.872C263.972,116.62,252.603,136.03,235.871,132.818z"/>
<path style="fill:#6EAA50;" d="M194.109,87.749l-55.754-10.718c-9.861-1.892-19.397,4.564-21.294,14.427
	c-1.896,9.864,4.564,19.397,14.427,21.294l62.123,11.941L194.109,87.749z"/>
<path style="fill:#FFB69E;" d="M159.416,232.388c-3.158-13.016,4.832-26.127,17.847-29.285l258.734-63.445
	c13.017-3.159,26.127,4.832,29.285,17.847c3.158,13.016-4.832,26.127-17.847,29.285l-258.734,63.445
	C175.686,253.395,162.574,245.402,159.416,232.388z"/>
<path style="fill:#3C5064;" d="M270.59,180.218l-93.328,22.885c-13.015,3.158-21.005,16.27-17.847,29.285
	c3.16,13.021,16.277,21.006,29.285,17.847l95.037-23.305L270.59,180.218z"/>
<path style="fill:#FFB69E;" d="M155.499,511.99c-13.393,0-24.25-10.857-24.25-24.25V232.803c0-13.393,10.857-24.25,24.25-24.25
	c13.393,0,24.25,10.857,24.25,24.25V487.74C179.749,501.133,168.891,511.99,155.499,511.99z"/>
<path style="fill:#3C5A73;" d="M179.749,343.564v-110.76c0-13.393-10.857-24.25-24.25-24.25c-13.393,0-24.25,10.857-24.25,24.25
	v110.76H179.749z"/>
<circle style="fill:#F2A88F;" cx="115.807" cy="42.085" r="42.085"/>
<path style="fill:#82BE50;" d="M194.958,248.601l-63.715,18.457L54.662,118.874l69.894-38.57c13.41-7.401,30.28-2.528,37.68,10.882
	l55.923,101.339l0,0C230.193,214.332,218.882,241.671,194.958,248.601z"/>
<path style="fill:#FFB69E;" d="M66.012,216.555l-19.441-77.451c-2.445-9.743,3.469-19.623,13.212-22.068
	c9.742-2.444,19.623,3.469,22.068,13.212l4.186,16.676l24.481-74.108c3.151-9.537,13.433-14.716,22.974-11.564
	c9.537,3.15,14.715,13.437,11.564,22.974L100.92,217.832C95.191,235.178,70.428,234.146,66.012,216.555z"/>
<path style="fill:#6EAA50;" d="M86.037,146.924l-4.186-16.676c-2.445-9.743-12.327-15.657-22.068-13.212
	c-9.743,2.445-15.658,12.326-13.212,22.068l14.825,59.064l4.616,18.388L86.037,146.924z"/>
<g>
</g>
<g>
</g>
<g>
</g>
<g>
</g>
<g>
</g>
<g>
</g>
<g>
</g>
<g>
</g>
<g>
</g>
<g>
</g>
<g>
</g>
<g>
</g>
<g>
</g>
<g>
</g>
<g>
</g>
</svg>
