<svg height="511pt" viewBox="-53 0 511 511.99996" width="511pt" xmlns="http://www.w3.org/2000/svg"><path d="m308.972656 379.132812-24.871094-8.289062v-78.34375c0-4.144531-3.355468-7.5-7.5-7.5-4.140624 0-37.5 0-37.5 0v15h30v76.246094c0 3.230468 2.066407 6.097656 5.128907 7.117187l30 10c3.925781 1.308594 8.175781-.8125 9.484375-4.746093 1.3125-3.925782-.8125-8.175782-4.742188-9.484376zm0 0" fill="#ffb4a9"/><path d="m105.5 292.5v196.59375l-24.871094 8.289062c-3.929687 1.308594-6.050781 5.554688-4.742187 9.484376 1.308593 3.933593 5.558593 6.054687 9.484375 4.746093l30-10c3.0625-1.019531 5.128906-3.886719 5.128906-7.117187v-201.996094zm0 0" fill="#ffd9d4"/><path d="m98 185c-45.492188 0-82.5-37.011719-82.5-82.5 0-4.144531-3.359375-7.5-7.5-7.5s-7.5 3.355469-7.5 7.5c0 53.761719 43.738281 97.5 97.5 97.5h45v-15zm0 0" fill="#ffd9d4"/><path d="m278 95c-4.140625 0-7.5 3.355469-7.5 7.5 0 45.488281-37.007812 82.5-82.5 82.5h-45v15h45c53.761719 0 97.5-43.738281 97.5-97.5 0-4.140625-3.359375-7.5-7.5-7.5zm0 0" fill="#ffb4a9"/><path d="m143 292.5 45-15v-45l-45-30zm0 0" fill="#ffb4a9"/><path d="m158 292.5-60-15v-45l60-30zm0 0" fill="#ffd9d4"/><path d="m254.101562 277.5h-96.101562l-15 60c19.59375 0 36.25-12.523438 42.429688-30h68.671874c8.285157 0 15-6.714844 15-15s-6.714843-15-15-15zm0 0" fill="#353535"/><path d="m168 172.5h-30l20 60h30v-40c0-11.046875-8.953125-20-20-20zm0 0" fill="#ff6337"/><path d="m158 277.5h-60v123.53125c0 8.285156 6.714844 15 15 15s15-6.714844 15-15v-66.101562c4.691406 1.660156 9.738281 2.570312 15 2.570312 8.285156 0 15-20.148438 15-45zm0 0" fill="#4f4f4f"/><path d="m158 192.5c0-11.046875-8.953125-20-20-20h-20c-11.046875 0-20 8.953125-20 20v40h60zm0 0" fill="#ff8646"/><path d="m375.5 7.5c0-2.410156-1.160156-4.675781-3.113281-6.085938-1.957031-1.4062495-4.472657-1.792968-6.757813-1.027343l-45 15c-3.0625 1.019531-5.128906 3.886719-5.128906 7.113281v69.59375l-9.871094 3.292969c-3.929687 1.308593-6.054687 5.554687-4.742187 9.484375 1.046875 3.144531 3.972656 5.132812 7.113281 5.132812.785156 0 1.585938-.125 2.371094-.390625l15-5c3.0625-1.019531 5.128906-3.886719 5.128906-7.113281v-39.59375l30-10v29.1875l-9.871094 3.292969c-3.929687 1.308593-6.054687 5.554687-4.742187 9.484375 1.308593 3.929687 5.554687 6.050781 9.484375 4.742187l15-5c3.0625-1.019531 5.128906-3.886719 5.128906-7.113281zm-45 34.59375v-14.1875l30-10v14.1875zm0 0" fill="#ccc"/><path d="m398 45c-4.144531 0-7.5 3.355469-7.5 7.5v54.59375l-9.871094 3.292969c-3.929687 1.308593-6.054687 5.554687-4.742187 9.484375 1.046875 3.144531 3.972656 5.132812 7.113281 5.132812.785156 0 1.585938-.125 2.371094-.390625l15-5c3.0625-1.019531 5.128906-3.886719 5.128906-7.113281v-60c0-4.140625-3.355469-7.5-7.5-7.5zm0 0" fill="#ccc"/><path d="m110.421875 66.472656-36.207031 38.011719c-3.847656 4.039063-6.214844 9.5-6.214844 15.515625 0 12.425781 10.074219 22.5 22.5 22.5h52.5v-76.03125h-32.578125zm0 0" fill="#a45e43"/><path d="m211.785156 104.484375-36.207031-38.011719h-32.578125v76.027344h52.5c12.425781 0 22.5-10.074219 22.5-22.5 0-6.015625-2.367188-11.476562-6.214844-15.515625zm0 0" fill="#85453d"/><path d="m170 61.5h-27v81c24.851562 0 45-20.148438 45-45 0-14.71875-7.070312-27.800781-18-36zm0 0" fill="#ffb4a9"/><path d="m156.199219 76.140625c1.152343 6.359375 1.800781 13.628906 1.800781 21.359375 0 24.851562-6.71875 45-15 45-24.851562 0-45-20.148438-45-45zm0 0" fill="#ffd9d4"/><path d="m170 61.5c-4.039062 5.378906-8.671875 10.289062-13.800781 14.640625l-13.199219-23.640625c10.121094 0 19.480469 3.351562 27 9zm0 0" fill="#85453d"/><path d="m98 97.5c0-24.851562 20.148438-45 45-45 5.699219 0 10.671875 9.558594 13.199219 23.640625-15.6875 13.320313-36.007813 21.359375-58.199219 21.359375zm0 0" fill="#a45e43"/></svg>